<svg version="1.1" xmlns="http://www.w3.org/2000/svg" viewBox="0 0 957.3500061035156 290" width="957.3500061035156" height="290">
  <!-- svg-source:excalidraw -->
  
  <defs>
    <style>
      @font-face {
        font-family: "Virgil";
        src: url("https://excalidraw.com/Virgil.woff2");
      }
      @font-face {
        font-family: "Cascadia";
        src: url("https://excalidraw.com/Cascadia.woff2");
      }
    </style>
  </defs>
  <rect x="0" y="0" width="957.3500061035156" height="290" fill="#ffffff"></rect><g transform="translate(286.72760009765625 11.287002563476562) rotate(0 25 12.5)"><text x="0" y="17" font-family="Virgil, Segoe UI Emoji" font-size="20px" fill="#000000" text-anchor="start" style="white-space: pre;" direction="ltr">value</text></g><g transform="translate(56 73.5) rotate(0 23 13)"><text x="23" y="18" font-family="Virgil, Segoe UI Emoji" font-size="20px" fill="#000000" text-anchor="middle" style="white-space: pre;" direction="ltr">head</text></g><g transform="translate(10 39.5) rotate(0 69 47)"><path d="M-1.3386045824736357 0.21819941513240337 C37.4975863063708 1.6098916419036686, 74.2230460703373 -0.4780480377189815, 139.699534105137 -1.789210932329297 M0.12202619668096304 0.3265399867668748 C48.705391398072244 -2.1069170921109617, 97.04082321170718 -1.1962427883408964, 137.61276014801115 -0.4548953538760543 M138.43419473059475 -0.986159460619092 C138.31971709003673 27.485105097107592, 139.10077677240596 51.83293940275908, 138.5570978987962 93.67267279140651 M137.01821502204984 0.25732936803251505 C137.31294988317416 25.576841983944178, 138.03617669863627 52.72352687921375, 138.4254748141393 94.09475331846625 M138.38604258187115 92.66146950237453 C98.63773667942732 95.29383962659165, 57.83302094116806 95.69960188178345, 0.6960661876946688 93.81094620935619 M138.7516831671819 94.49816303793341 C109.9551484387368 94.08552649913355, 80.54660561550409 93.92973923979326, 0.2855212902650237 94.39820238295943 M-0.6468183528631926 95.43128894083202 C1.8285550656355918 69.35681923869997, -1.0993581829033792 43.360457370430225, -1.7641152273863554 0.3938588332384825 M0.0913210129365325 94.15661545936018 C-0.2847381143830716 66.14175086133181, 0.2820193559862674 38.080828562192615, -0.13293660525232553 -0.9828721350058913" stroke="#000000" stroke-width="1" fill="none"></path></g><g transform="translate(148 38.5) rotate(0 21 47.5)"><path d="M0.21819941513240337 0.7039678562432528 C11.079929707013072 0.916916132401675, 18.839531016349795 1.980641067456454, 40.2107890676707 0.9990855325013399 M0.3265399867668748 0.41170122381299734 C9.431027358770372 0.40219186058267953, 20.542954344116154 -0.4384908545948565, 41.545104646123946 -0.2536269510164857 M41.01384053938091 1.096676455810666 C43.17848778725602 22.525487228762362, 41.71041543246247 41.85260007996113, 41.67267279140651 94.58831398375334 M42.257329368032515 -0.45407570246607065 C41.56649202327244 26.414622457232333, 42.44810119490139 52.71641750261189, 42.094753318466246 94.83743568416686 M40.66146950237453 94.79434912092985 C26.823192648775873 93.22731476636605, 11.02573114857077 95.77713512988763, -0.18905379064381123 93.18447183258833 M42.49816303793341 95.82800408359618 C32.8414744425565 95.60802383543925, 22.942042355053125 95.60122822048145, 0.39820238295942545 94.62722783442588 M1.4312889408320189 96.74846290238203 C0.9106032149400564 66.12999172927813, -0.3898170097265391 37.854768923483796, 0.3938588332384825 -0.04026074521243572 M0.15661545936018229 94.98483877535911 C0.7730120536405594 64.32714895578101, 0.7228642520029098 32.41816881485283, -0.9828721350058913 -0.22082886938005686" stroke="#000000" stroke-width="1" fill="none"></path></g><g transform="translate(403 45) rotate(0 21 47.5)"><path d="M0.42308621294796467 -1.2054147887974977 C12.028985773958267 0.4975390784628689, 21.05021622180939 1.7378979675658046, 43.20164047367871 0.3873049449175596 M-0.06319341901689768 -0.40952936466783285 C11.361729961633683 -0.4113930072449148, 23.40898972991854 0.40594805220142005, 41.77188657876104 0.7370433742180467 M43.549658643081784 -0.4276397991925478 C43.23251123442314 26.14689440326766, 41.740417611738664 52.09244415443392, 42.7066175211221 96.13436208479108 M41.62054061051458 -0.8841898506507277 C41.291861864971 31.422298303339637, 42.0801168710459 63.54262255504729, 42.53050216194242 94.8698591226712 M42.95018927939236 93.58670554868878 C28.390756819956003 97.26412920651958, 15.515820286422965 96.95607577262447, 0.4140806067734957 95.0849695634097 M42.81724365707487 94.16857066098602 C26.18620622269809 95.51401176361368, 9.862258593924341 96.10333120135591, 0.6771783148869872 95.0744379097596 M0.7402176726609468 94.04727701656522 C-0.45499858795665193 74.2733141067438, -1.279966508736834 51.419561081565924, 0.9102724064141512 -0.2406699825078249 M-0.39071733597666025 94.68347507063301 C-0.49647516501136113 73.32711568055674, 1.3955033670645207 51.08128428272903, -0.8941945815458894 0.33335419837385416" stroke="#000000" stroke-width="1" fill="none"></path></g><g transform="translate(429 228) rotate(0 58.5 26)"><text x="0" y="18" font-family="Virgil, Segoe UI Emoji" font-size="20px" fill="#000000" text-anchor="start" style="white-space: pre;" direction="ltr">Pointer Box</text><text x="0" y="44" font-family="Virgil, Segoe UI Emoji" font-size="20px" fill="#000000" text-anchor="start" style="white-space: pre;" direction="ltr">(next Node)</text></g><g><g transform="translate(463 214) rotate(0 -11.80543178431688 -31.500993514880548)"><path d="M0.10021669082343587 -0.8401172619313002 C-3.5316951392839355 -11.456068374837438, -18.92417959359785 -52.47316256177922, -22.50035068579018 -62.82795377783477 M-1.306308275833726 1.3332172302156686 C-5.077995105559627 -9.6617404687653, -20.297992749189337 -53.317996118490896, -23.71108025945723 -64.33520425997675" stroke="#000000" stroke-width="1" fill="none"></path></g><g transform="translate(463 214) rotate(0 -11.80543178431688 -31.500993514880548)"><path d="M-6.491478398413381 -41.6467253253232 C-7.793975645852029 -45.392447049904554, -12.514833100997457 -51.56675714884482, -21.996920906752347 -64.14908984258771 M-4.135645036556742 -41.21451514348344 C-11.296112541645 -47.80179924425186, -16.771801644904 -55.741935805309026, -24.41758446190506 -63.999560619257394" stroke="#000000" stroke-width="1" fill="none"></path></g><g transform="translate(463 214) rotate(0 -11.80543178431688 -31.500993514880548)"><path d="M-25.96758862155371 -35.181345757043516 C-22.6245240069761 -40.5010152495795, -22.653066667876914 -48.233007855502116, -21.996920906752347 -64.14908984258771 M-23.61175525969707 -34.74913557520375 C-24.95892294204404 -43.163939051611166, -24.660878478099786 -53.020750893840955, -24.41758446190506 -63.999560619257394" stroke="#000000" stroke-width="1" fill="none"></path></g></g><g transform="translate(265 46) rotate(0 69 47)"><path d="M1.928482634946704 1.7852715123444796 C30.636891246400776 -0.021635411847382713, 61.15912546515465 1.6009560240618885, 139.6788905095309 1.7237855661660433 M0.8646083110943437 -0.49221516493707895 C47.56791768968105 -1.512467429433018, 95.53016204293817 -1.4900510464049876, 137.01909845415503 0.9014805173501372 M138.24489669315517 1.408275293186307 C137.5567631403543 20.915491357631982, 139.98255255619063 46.43728147298098, 139.21226738207042 95.35879992134869 M137.13536828104407 -0.6377057218924165 C137.8552197443135 22.718913915008308, 138.3605004476197 42.88945929501206, 137.32720526400954 93.52529900427908 M136.7945852112025 95.42272995598614 C101.22405474353582 94.12963407279923, 65.09076296910644 95.4935699606128, 0.3873049449175596 93.5969961155206 M137.59047063533217 93.60803811904043 C105.87154736705125 93.81439912648871, 74.95239159297198 93.68467966051772, 0.7370433742180467 93.82071687933058 M-0.4276397991925478 95.39925317652524 C-0.25384228998795155 67.35702719148249, -1.1051028924621642 41.60635279640555, 1.1343620847910643 0.7921949494630098 M-0.8841898506507277 93.27171923872083 C-0.3505529890395701 65.6606682587415, -0.49315474728122355 37.73189018983393, -0.13014087732881308 -0.030289539135992527" stroke="#000000" stroke-width="1" fill="none"></path></g><g transform="translate(262 244.5) rotate(0 51.5 13)"><text x="0" y="18" font-family="Virgil, Segoe UI Emoji" font-size="20px" fill="#000000" text-anchor="start" style="white-space: pre;" direction="ltr">Data Box</text></g><g><g transform="translate(316 230) rotate(0 3.3738416326791025 -36.960548946931965)"><path d="M0.02851773910224442 -1.0202157955616713 C1.3543960294375816 -13.415929685160519, 7.001830601816375 -62.76835305504501, 8.163332442566752 -74.97966486029327 M-1.4156491772085429 1.0585669664293529 C-0.16420607325931402 -11.078028967007995, 6.551672798817356 -60.545661620721226, 7.826036511287093 -73.43156366072596" stroke="#000000" stroke-width="1" fill="none"></path></g><g transform="translate(316 230) rotate(0 3.3738416326791025 -36.960548946931965)"><path d="M12.977714932507126 -42.285663842585464 C12.684895485268639 -53.495552782892474, 11.663109987580977 -64.14256928643616, 7.183726709634065 -74.36799925401807 M14.37929175978735 -44.77063419892319 C12.216471919645956 -55.361560808444246, 9.152467802384459 -66.09714095699121, 7.920851907990873 -72.59754937257618" stroke="#000000" stroke-width="1" fill="none"></path></g><g transform="translate(316 230) rotate(0 3.3738416326791025 -36.960548946931965)"><path d="M-7.399263147975564 -44.71440151746262 C-1.2379343546205686 -55.158400889880255, 4.206680995884056 -65.03468528099629, 7.183726709634065 -74.36799925401807 M-5.99768632069534 -47.199371873800345 C-0.7063972559120888 -57.061481479051324, 3.6850012295623085 -66.90845012146013, 7.920851907990873 -72.59754937257618" stroke="#000000" stroke-width="1" fill="none"></path></g></g><g transform="translate(319.5 80) rotate(0 14.5 13)"><text x="14.5" y="18" font-family="Virgil, Segoe UI Emoji" font-size="20px" fill="#000000" text-anchor="middle" style="white-space: pre;" direction="ltr">55</text></g><g transform="translate(418 79.5) rotate(0 6 13)"><text x="6" y="18" font-family="Virgil, Segoe UI Emoji" font-size="20px" fill="#000000" text-anchor="middle" style="white-space: pre;" direction="ltr">4</text></g><g transform="translate(167 73) rotate(0 2 13)"><text x="2" y="18" font-family="Virgil, Segoe UI Emoji" font-size="20px" fill="#000000" text-anchor="middle" style="white-space: pre;" direction="ltr">1</text></g><g><g transform="translate(205.4083185258807 96.01969150483288) rotate(0 25.497296183019813 -0.5657456537532113)"><path d="M-1.120691130682826 -0.8815691906958818 C7.625646516501882 -1.3588627102757043, 43.19379669487466 -2.1490455685975887, 52.115283496722455 -2.401494346356122 M0.4918072963692248 1.2700030388496817 C9.127053256470688 0.8558823239831084, 42.692432775515954 -0.9767969324300925, 51.2583758906162 -1.4685487012212264" stroke="#000000" stroke-width="1" fill="none"></path></g><g transform="translate(205.4083185258807 96.01969150483288) rotate(0 25.497296183019813 -0.5657456537532113)"><path d="M25.90920254011364 9.049473047542572 C31.862211776960393 7.001323085106803, 38.3130459368833 5.20438260013287, 52.71998047276201 -0.3537639408205735 M26.97993814834119 8.528017799656093 C35.22980577958808 5.5631668435626, 42.1204649912586 1.9370155018413673, 50.52032416972133 -1.9631680176426756" stroke="#000000" stroke-width="1" fill="none"></path></g><g transform="translate(205.4083185258807 96.01969150483288) rotate(0 25.497296183019813 -0.5657456537532113)"><path d="M24.92115727419045 -8.69328532883693 C31.20906199622482 -5.945717874849781, 37.926442577789835 -2.9561683897860718, 52.71998047276201 -0.3537639408205735 M25.991892882418 -9.21474057672341 C34.455854277452055 -7.054838139528924, 41.631819923456895 -5.557617807695941, 50.52032416972133 -1.9631680176426756" stroke="#000000" stroke-width="1" fill="none"></path></g></g><g transform="translate(418.3500061035156 14) rotate(0 56.5 13)"><text x="0" y="18" font-family="Virgil, Segoe UI Emoji" font-size="20px" fill="#000000" text-anchor="start" style="white-space: pre;" direction="ltr">at index (1)</text></g><g transform="translate(700.3500061035156 50.5) rotate(0 27 47.5)"><path d="M1.1524003613740206 -0.4821561146527529 C16.789015741460027 0.45918707219883803, 30.103962496668103 0.009186845701187885, 52.24937693960965 -0.3257481027394533 M0.7065408146008849 -0.5683384006842971 C15.433058760687711 -0.09414387347176667, 31.95461206901819 0.27685757873579864, 53.17371519561857 0.40620770398527384 M52.19302194006741 -0.6379310060292482 C52.345901142200454 27.75949253933505, 54.742927621444686 59.61942333262415, 55.91382549889386 93.27065710537137 M53.240302882157266 0.6604246133938432 C54.001288120495154 23.468884712550793, 55.23098466251977 47.37404834106565, 54.79197185393423 94.27336125914009 M53.38925455696881 93.70671944133939 C35.578917160071434 92.89984849708156, 17.00123242735863 95.58417520539837, -0.913758946582675 94.94188950769605 M54.06056301947683 94.43751316610725 C40.83729097545147 94.36219488272445, 26.794979586638508 94.72142227182167, -0.21822092775255442 95.25759645644577 M1.8273408878594637 94.57199786417188 C0.665797986695543 60.91519287554548, -0.03677346496842793 30.422433220781386, -1.8639305960386992 -1.7938013840466738 M-0.18878839258104563 95.99550172034652 C-0.03274545711465182 68.36313302395867, -0.6392057601828128 44.20423787645996, 0.6923006689175963 0.0455893212929368" stroke="#000000" stroke-width="1" fill="none"></path></g><g transform="translate(562.3500061035156 51.5) rotate(0 69 47)"><path d="M-0.4821561146527529 1.842189596965909 C38.78191071208567 -0.5848460416682064, 76.77978605628014 -2.5457793097384274, 137.67425189726055 -0.18666733615100384 M-0.5683384006842971 -0.2629394317045808 C50.5797071069479 -0.4124106399156151, 101.87972347792238 -1.8013111285306511, 138.40620770398527 0.052079073153436184 M137.36206899397075 -1.5675920378416777 C137.18951627591625 28.17347222287208, 140.0546958742477 56.601901061832905, 136.27065710537136 92.88913338072598 M138.66042461339384 -0.6434868657961488 C138.27851322935894 35.16608848795295, 138.9602932994254 69.9517294773832, 137.27336125914007 94.42133995052427 M136.70671944133937 94.0541528929025 C87.70391904879361 93.53028953732922, 42.0778715096414 92.6648266977258, -0.058110492303967476 92.94842599518597 M137.43751316610724 94.19804116245359 C99.89357880540192 93.60005692752078, 62.50143220257013 93.86535603912547, 0.2575964564457536 94.43854909297079 M-0.4280021358281374 93.90890143997967 C-2.2564706038869917 72.49562213476747, -0.08301387542858718 50.71465369686484, -1.7938013840466738 -0.5866093169897795 M0.9955017203465104 93.86354284640402 C-1.1535109166242181 66.08328248746693, 0.40119968017563234 40.34470055717975, 0.0455893212929368 0.642128131352365" stroke="#000000" stroke-width="1" fill="none"></path></g><g transform="translate(613.3500061035156 85.5) rotate(0 18 13)"><text x="18" y="18" font-family="Virgil, Segoe UI Emoji" font-size="20px" fill="#000000" text-anchor="middle" style="white-space: pre;" direction="ltr">448</text></g><g transform="translate(709.3500061035156 85) rotate(0 17 13)"><text x="17" y="18" font-family="Virgil, Segoe UI Emoji" font-size="20px" fill="#000000" text-anchor="middle" style="white-space: pre;" direction="ltr">tail</text></g><g><g transform="translate(456.3500061035156 96) rotate(0 47.39426284350455 0.21070494242012217)"><path d="M-0.1294442731887102 1.1954889077693223 C15.94494857403139 1.0459504026919602, 80.2515788556387 -0.6703927975147963, 96.44506693296134 -0.7740790229290724 M-1.6565412459522486 0.7775166390091179 C14.21138655724625 0.7538381669670342, 78.88253888589641 0.731227772012353, 95.20568160913885 0.3569547412544489" stroke="#000000" stroke-width="1" fill="none"></path></g><g transform="translate(456.3500061035156 96) rotate(0 47.39426284350455 0.21070494242012217)"><path d="M69.11148021980198 9.974278755937242 C74.24103308041828 7.820407703043511, 84.90976924445548 5.303645563515034, 95.76604345455766 1.58359495267272 M66.4264310538304 9.965988141935789 C74.83643378707633 8.274674761563823, 82.20786807012846 4.7446809553661575, 95.91263068761677 -0.5040780511125922" stroke="#000000" stroke-width="1" fill="none"></path></g><g transform="translate(456.3500061035156 96) rotate(0 47.39426284350455 0.21070494242012217)"><path d="M68.90611221133835 -10.545902197625015 C74.11831257385472 -6.545703610080935, 84.84863706079683 -2.908617640109867, 95.76604345455766 1.58359495267272 M66.22106304536678 -10.554192811626468 C74.73849945936466 -6.9605951704972195, 82.16281236312732 -5.207006233343175, 95.91263068761677 -0.5040780511125922" stroke="#000000" stroke-width="1" fill="none"></path></g></g><g transform="translate(682.8500061035156 10) rotate(0 60.5 13)"><text x="0" y="18" font-family="Virgil, Segoe UI Emoji" font-size="20px" fill="#000000" text-anchor="start" style="white-space: pre;" direction="ltr">at index (4)</text></g><g><g transform="translate(771.3500061035156 93) rotate(0 36 -2)"><path d="M0.886437813565135 -0.3603013973683119 C13.046455101296306 -0.832471992696325, 60.97138804607094 -3.4609614433099827, 72.69124763421715 -3.9854487042874096 M-0.10732106365263472 -1.5950635763257743 C11.97868401132524 -1.760755986000101, 59.80774790130556 -1.7743894128253062, 72.10610717855394 -2.4403840228170157" stroke="#000000" stroke-width="1" fill="none"></path></g><g transform="translate(771.3500061035156 93) rotate(0 36 -2)"><path d="M43.566372750520905 9.63869448502497 C52.051865375381 3.9229368551904615, 60.60470517683201 2.7866603825267937, 71.37188224628568 -4.2120895440876485 M43.809954353802105 7.566266471826893 C49.592430541122894 6.2726839860840515, 55.723882232133754 4.8076879061692726, 72.49550684954971 -1.7288653859123588" stroke="#000000" stroke-width="1" fill="none"></path></g><g transform="translate(771.3500061035156 93) rotate(0 36 -2)"><path d="M43.079171711318715 -10.87672989599234 C51.50288831184037 -10.901100559078548, 60.190972844426966 -6.342391119794273, 71.37188224628568 -4.2120895440876485 M43.322753314599915 -12.949157909190419 C49.23616714980603 -10.135363370342143, 55.4651268364771 -7.494420114028287, 72.49550684954971 -1.7288653859123588" stroke="#000000" stroke-width="1" fill="none"></path></g></g><g transform="translate(863.3500061035156 59) rotate(0 42 36.400000000000034)"><text x="0" y="51.800000000000054" font-family="Virgil, Segoe UI Emoji" font-size="56.00000000000004px" fill="#000000" text-anchor="start" style="white-space: pre;" direction="ltr">null</text></g></svg>