<svg version="1.1" xmlns="http://www.w3.org/2000/svg" viewBox="0 0 1213.451912610688 1064.4935349963962" width="1213.451912610688" height="1064.4935349963962">
  <!-- svg-source:excalidraw -->
  
  <defs>
    <style>
      @font-face {
        font-family: "Virgil";
        src: url("https://excalidraw.com/Virgil.woff2");
      }
      @font-face {
        font-family: "Cascadia";
        src: url("https://excalidraw.com/Cascadia.woff2");
      }
    </style>
  </defs>
  <rect x="0" y="0" width="1213.451912610688" height="1064.4935349963962" fill="#ffffff"></rect><g transform="translate(121.1683331077358 949.0833333333334) rotate(0 114 12.5)"><text x="0" y="18" font-family="Virgil, Segoe UI Emoji" font-size="20px" fill="#000000" text-anchor="start" style="white-space: pre;" direction="ltr">Point for the new node</text></g><g transform="translate(135.86759481652467 867.5887730916344) rotate(0 51.42857142857141 29.285714285714278)"><path d="M0.41583745181560516 0.8896365910768509 C24.114168782319332 -1.5107127508946825, 50.33122264700275 -1.9494968733617235, 103.70742807430877 0.11771781742572784 M0.9039569273591042 0.9048405513167381 C21.9644723907113 -0.5880104428955482, 44.40442053228615 -0.486290348214762, 102.5798141647662 -0.9333097115159035 M104.1252938274826 -1.0845107287168503 C104.44797876296295 17.14901340327092, 103.23770740447296 38.923629454204004, 102.06723365826262 56.864489425505894 M103.61010858310117 0.4085577353835106 C102.24685928257445 17.82455967153821, 102.65503069790343 37.235518577907754, 103.7318396259631 59.05915629544427 M103.94713554424895 57.608427871550816 C80.19928058769018 59.92017212297234, 57.68010910281111 60.20230474855217, 0.9490925520658493 60.21800934204032 M102.54185816539182 59.46407305874993 C82.61153103091884 58.472968819524546, 60.36971860591852 58.348263743306894, 0.04916027933359146 57.58727228322198 M-0.22068817913532257 57.73233353027274 C-0.2824481690568582 42.8267617151141, -1.7395151818437236 24.392945881400784, 1.2621146887540817 -0.46185915172100067 M0.1135123148560524 57.92437898793389 C0.4611776029425007 36.01903885815824, 0.3001198922949177 13.354261167347424, -0.8630690202116966 0.7953253611922264" stroke="#000000" stroke-width="1" fill="none"></path></g><g><g transform="translate(617.8349997744026 866.4166666666665) rotate(0 -15.833333333333371 30)"><path d="M0.5337819546461104 -0.21126727759838104 C-4.961756004558682 9.88701505959034, -26.658344277077312 50.71895675957203, -32.14942361811804 60.83919649422169 M-0.6451212485041469 -1.3677865436766297 C-6.413004591770275 8.376461768737062, -28.473427224828818 49.18998584656976, -33.35091648125718 59.157199904909355" stroke="#000000" stroke-width="1" fill="none"></path></g></g><g transform="translate(470.6478019267705 838.1945215861003) rotate(0 24 12.5)"><text x="0" y="18" font-family="Virgil, Segoe UI Emoji" font-size="20px" fill="#000000" text-anchor="start" style="white-space: pre;" direction="ltr">Next</text></g><g transform="translate(237.31446859343714 839.861188252767) rotate(0 24 12.5)"><text x="0" y="18" font-family="Virgil, Segoe UI Emoji" font-size="20px" fill="#000000" text-anchor="start" style="white-space: pre;" direction="ltr">Next</text></g><g transform="translate(242.31446859343714 548.1945215861002) rotate(0 24 12.5)"><text x="0" y="18" font-family="Virgil, Segoe UI Emoji" font-size="20px" fill="#000000" text-anchor="start" style="white-space: pre;" direction="ltr">Next</text></g><g transform="translate(400.9390233879533 883.2316302344914) rotate(0 7.5 12.5)"><text x="7.5" y="18" font-family="Virgil, Segoe UI Emoji" font-size="20px" fill="#000000" text-anchor="middle" style="white-space: pre;" direction="ltr">2</text></g><g><g transform="translate(299.29616624509606 897.0173445202057) rotate(0 20.714285714285708 -0.7142857142857224)"><path d="M-0.7460274249315262 0.5101711302995682 C6.250965753481499 -0.032113694435076834, 34.52997688494977 -2.2857865894124756, 41.499202119026855 -2.414512454186183 M1.063169447639957 -0.26759297163225715 C7.9505627559076615 -0.7652095811516961, 34.07959588059578 -1.1072477606316011, 40.58823776788876 -1.3947062414126368" stroke="#000000" stroke-width="1" fill="none"></path></g><g transform="translate(299.29616624509606 897.0173445202057) rotate(0 20.714285714285708 -0.7142857142857224)"><path d="M22.162813989069452 6.341336814330698 C24.623272286745525 3.765694028826929, 33.21774210261658 4.193339349385104, 42.39791887052223 -2.2782010208802195 M21.03520007952689 5.290309285389067 C28.126918729780797 3.5394989438245936, 34.086761232249074 1.5603549795785714, 40.04598240353033 -0.6033991869525881" stroke="#000000" stroke-width="1" fill="none"></path></g><g transform="translate(299.29616624509606 897.0173445202057) rotate(0 20.714285714285708 -0.7142857142857224)"><path d="M21.775508151748898 -7.831199619843322 C24.43568984259402 -6.722831175565437, 33.13077019421924 -2.6135824650295856, 42.39791887052223 -2.2782010208802195 M20.647894242206338 -8.882227148784953 C27.813925322223813 -5.799710845705944, 33.905906899942934 -2.9435394650385875, 40.04598240353033 -0.6033991869525881" stroke="#000000" stroke-width="1" fill="none"></path></g></g><g transform="translate(246.43902338795323 868.4459159487772) rotate(0 15 28.571428571428555)"><path d="M-1.6432350426912308 -0.5987457484006882 C9.078910388052464 1.7902561821043492, 16.079543977975845 -0.9011524520814419, 30.82350032031536 -0.8160380572080612 M0.20691541582345963 0.01403721421957016 C10.130778357386589 0.9140683986246585, 20.538566164672375 1.0712999679148196, 29.182825841009617 0.18617137521505356 M30.34048716723919 -0.34395019710063934 C30.95434741250106 22.525662913918485, 30.59142712822982 41.02035231888292, 28.51198022067547 56.94008936839441 M29.104965962469578 -0.18802563101053238 C30.314592215631688 18.250021803591924, 30.018326375101292 34.906659020909224, 30.76963523775339 56.205418736806905 M28.100378200411797 56.49896922068933 C17.154004387557507 56.75927487494687, 8.321079671382904 59.07393923880795, 0.9487969130277634 56.518645906022584 M29.791811980307102 57.69895854698757 C19.52179864048958 56.737266166827474, 9.48229219764471 56.8692444402192, 0.30368737131357193 56.43595782028774 M1.5968872755765915 56.488536500505006 C-1.0723311752080915 44.439594607268035, -1.6547033637762067 31.821393070476375, -0.6087253838777542 0.21699483692646027 M-0.8494898900389671 57.416375071874654 C1.477133903120245 44.44861407471552, -0.24578293838671306 30.50754832902123, -0.8553986176848412 -0.9466742649674416" stroke="#000000" stroke-width="1" fill="none"></path></g><g transform="translate(184.43902338795328 885.2316302344914) rotate(0 2 12.5)"><text x="2" y="18" font-family="Virgil, Segoe UI Emoji" font-size="20px" fill="#000000" text-anchor="middle" style="white-space: pre;" direction="ltr">1</text></g><g transform="translate(357.86759481652473 865.5887730916344) rotate(0 51.428571428571416 29.285714285714278)"><path d="M1.8096811026334763 -0.8834947794675827 C28.601379328540386 -1.7458223253488538, 56.58269852612698 -1.4844416528940199, 100.99052343411101 0.41383083164691925 M-0.5422553643584251 0.7913070544600487 C30.18435147298233 -0.46602055238825923, 62.68150426979574 -1.0471465270434106, 102.00367328418149 0.17024358361959457 M103.67425832790984 -1.0191106051206589 C101.71470497750806 16.361378076885426, 103.3994836678462 34.877685240336824, 103.83259830517424 56.78136049636771 M102.37564250720395 -0.5033918991684914 C103.51828359652839 15.532697183745245, 103.65934990931831 33.414817455623826, 103.6804332424487 57.62161767163445 M104.64243183178557 60.25552355178763 C76.26022051274774 57.622924508793, 48.46509110288958 58.34545630429471, -1.9683125764131546 58.15505253204276 M102.43759533656491 58.59306275525262 C66.58378721454312 57.75103247101816, 28.965857083243975 59.088989137964575, -0.23092957586050034 59.36987220921685 M-1.2940991669893265 59.11053882965018 C-0.400291054482971 43.133219575243324, -1.2337923934417112 25.534882864781775, 1.5906507223844528 -1.6989797800779343 M-0.7389652356505394 57.980538484241265 C-1.4317131296864574 38.45129215078693, -1.4897587553731029 19.35743247504744, -0.4221353158354759 -0.893830694258213" stroke="#000000" stroke-width="1" fill="none"></path></g><g><g transform="translate(521.2961662450962 895.0173445202057) rotate(0 20.714285714285694 -0.7142857142857224)"><path d="M-0.5300968676805496 0.4941001921892165 C6.112269845888727 0.17773089479832144, 34.00130295001324 -0.30529991033532744, 40.93894859424658 -0.8124071227652849 M1.3924635474476963 -0.29210115225054323 C7.739051496828682 -0.44519658257076344, 33.273368129817584 -2.35700557503895, 39.73385114259884 -2.6114956109957665" stroke="#000000" stroke-width="1" fill="none"></path></g><g transform="translate(521.2961662450962 895.0173445202057) rotate(0 20.714285714285694 -0.7142857142857224)"><path d="M21.530679646255056 4.793025699372225 C29.087667605237204 1.929185228948835, 33.622038396851934 -0.31159752363254967, 39.76192557103798 -3.4307604252533883 M19.89000516694931 5.79523513179534 C28.34464491727034 2.0761364336168224, 33.727158499788075 -0.3460787105326659, 39.56187604404852 -2.021477733476636" stroke="#000000" stroke-width="1" fill="none"></path></g><g transform="translate(521.2961662450962 895.0173445202057) rotate(0 20.714285714285694 -0.7142857142857224)"><path d="M20.69800154054349 -9.360328742663107 C28.708128735794055 -6.6950822673543735, 33.56757347331408 -3.410456408000499, 39.76192557103798 -3.4307604252533883 M19.057327061237746 -8.358119310239992 C27.737820996960586 -6.940371207937857, 33.42293608857873 -4.219150511015252, 39.56187604404852 -2.021477733476636" stroke="#000000" stroke-width="1" fill="none"></path></g></g><g transform="translate(468.4390233879533 866.4459159487772) rotate(0 15 28.571428571428555)"><path d="M1.0269405096769333 -0.5546573847532272 C5.80813840776682 0.5362365402281284, 15.377590090036394 -0.6968591056764126, 31.268150970339775 -1.0845107287168503 M0.6784530058503151 -0.3949545994400978 C10.520451590418817 0.11439217105507848, 22.575867228209976 0.5341664649546146, 30.752965725958347 0.4085577353835106 M30.196758911013603 1.7493935376405716 C30.550306939652987 12.441044481737267, 29.198800229600497 28.091756094779274, 31.089992687106133 56.17985644297937 M30.91070155054331 0.47454627603292465 C31.26308194973639 13.316521104957369, 30.11784760334662 27.975718529096657, 29.684715308248997 58.03550163017849 M30.69938676059246 57.24117770152429 C16.50554495304823 56.63284941794613, 8.059917867183685 56.19098302008847, -0.22068817913532257 56.303762101701295 M29.262800253927708 57.77391448723415 C20.704167872667313 57.729230983874594, 11.543034575879574 56.57492385687569, 0.1135123148560524 56.49580755936245 M-1.4422267228364944 55.41671910243372 C1.7645722606352396 36.76070519643169, 0.7209573962858744 21.74441602187496, 0.6559325903654099 -1.4779304713010788 M-0.9134442433714867 56.27578535782436 C0.0666638942701473 42.482684089669135, 0.3873566719038143 28.87741088547875, 0.8677258864045143 -0.0037373676896095276" stroke="#000000" stroke-width="1" fill="none"></path></g><g transform="translate(581.2961662450962 883.1602016630628) rotate(0 17 12.5)"><text x="0" y="18" font-family="Virgil, Segoe UI Emoji" font-size="20px" fill="#000000" text-anchor="start" style="white-space: pre;" direction="ltr">Null</text></g><g transform="translate(112.83499977440249 809.0833333333334) rotate(0 185.5 12.5)"><text x="0" y="18" font-family="Virgil, Segoe UI Emoji" font-size="20px" fill="#000000" text-anchor="start" style="white-space: pre;" direction="ltr">Set next of the last node in the list</text></g><g transform="translate(364.5016664410693 739.0833333333334) rotate(0 17 12.5)"><text x="0" y="18" font-family="Virgil, Segoe UI Emoji" font-size="20px" fill="#000000" text-anchor="start" style="white-space: pre;" direction="ltr">Null</text></g><g><g transform="translate(520.4087659358513 612.2033822195871) rotate(0 20.714285714285722 -0.7142857142857224)"><path d="M-1.1296674281358718 0.22357645332813258 C5.72056976883184 0.023311281913800025, 33.887639371979795 -0.15987516286828624, 40.88755003086157 -0.27246028057168137 M0.4781184427533298 -0.7046498540136963 C7.141708879316933 -1.2906864922196588, 33.10003117331657 -1.5252328351517122, 39.655468333436694 -1.7880766766505212" stroke="#000000" stroke-width="1" fill="none"></path></g><g transform="translate(520.4087659358513 612.2033822195871) rotate(0 20.714285714285722 -0.7142857142857224)"><path d="M20.724855132962457 4.858514721379009 C27.667570137965402 2.880687558825448, 32.815381962952635 1.7705344115595363, 40.219104800297465 -2.49218484036493 M20.960597575272313 6.381947460458008 C25.74692562164467 3.9822173176522275, 32.23391775107263 2.1958667188065784, 39.88127389170095 -1.9279737027721375" stroke="#000000" stroke-width="1" fill="none"></path></g><g transform="translate(520.4087659358513 612.2033822195871) rotate(0 20.714285714285722 -0.7142857142857224)"><path d="M20.38900586011059 -9.315334440212116 C27.536234544052935 -7.290462352852851, 32.77881538904345 -4.401077900075135, 40.219104800297465 -2.49218484036493 M20.624748302420446 -7.791901701133117 C25.39886068799542 -5.9428953851527115, 31.986520771188594 -3.480755642012485, 39.88127389170095 -1.9279737027721375" stroke="#000000" stroke-width="1" fill="none"></path></g></g><g><g transform="translate(302.83499977440255 751.4166666666667) rotate(0 21.666666666666686 0)"><path d="M-0.7896917849779128 -0.01215266883373256 C6.305456290973565 -0.00826730430126188, 35.139202491111256 0.19900398552417747, 42.311856060226795 0.27054987251758567 M0.9965812985692173 -1.0641367653105407 C8.476994158916389 -1.4638438361976296, 37.2253315966587 -1.6029421338532122, 44.48753502821864 -1.7099861931893976" stroke="#000000" stroke-width="1" fill="none"></path></g><g transform="translate(302.83499977440255 751.4166666666667) rotate(0 21.666666666666686 0)"><path d="M24.1819407106949 4.200004037831124 C30.285149516329753 2.1047066472438876, 36.177159429888896 0.00978156101526828, 43.24164838945807 -1.9039258045051248 M23.36745288834106 6.058331195626553 C28.38603331299069 4.807827368321222, 33.93008565697831 3.0406348392365112, 44.9889250457877 -1.1124481168482454" stroke="#000000" stroke-width="1" fill="none"></path></g><g transform="translate(302.83499977440255 751.4166666666667) rotate(0 21.666666666666686 0)"><path d="M24.034618644626324 -10.620136617987686 C30.209378115040842 -8.5883303645731, 36.142404549447136 -6.557121298677563, 43.24164838945807 -1.9039258045051248 M23.220130822272484 -8.761809460192257 C28.232272367399354 -6.7951000336080565, 33.8083011291965 -5.345564598900074, 44.9889250457877 -1.1124481168482454" stroke="#000000" stroke-width="1" fill="none"></path></g></g><g transform="translate(464.49429580820066 580.9187883649554) rotate(0 15 28.571428571428555)"><path d="M1.9268519133329391 -0.9312915056943893 C7.803560055792332 0.22376736775040626, 12.915299326181412 -0.5688528142869472, 29.99482934176922 -1.59284345805645 M-0.4514000043272972 0.4703911170363426 C9.02976469695568 0.7600580312311649, 17.786114029586315 -0.3264161489903927, 29.030652083456516 0.6067205294966698 M31.223852321505547 0.575411394238472 C29.35090801332678 13.412890857883855, 28.361416073782102 21.11421614672455, 28.406255409121513 57.497710847428834 M30.607516326010227 -0.5794271603226662 C29.935060457459517 20.312608213296947, 29.31084509300334 41.221817354006404, 30.218024529516697 57.404921443334615 M29.19497077167034 57.576976441911256 C20.05513959378004 55.94986742617825, 13.079050481319424 56.36937492968777, -0.2391575127840042 56.77055754618982 M30.369534768164158 56.95565119492153 C19.29243329167366 56.56506985010842, 8.940223477780815 57.42062753023843, -0.25649114698171616 58.058701188436544 M1.222531482577324 57.96005263285974 C-1.2749938475234166 34.44267327232018, -0.08061737886496945 15.001053799475933, -1.7622102051973343 0.3511849194765091 M0.13177446275949478 58.02794900642971 C0.06630391627550136 39.49052755002462, -0.6315351054072379 22.825260329459383, -0.369213305413723 -0.2954656258225441" stroke="#000000" stroke-width="1" fill="none"></path></g><g transform="translate(93.24726682355612 676.0311940511069) rotate(0 218.5 12.5)"><text x="0" y="17" font-family="Virgil, Segoe UI Emoji" font-size="20px" fill="#000000" text-anchor="start" style="white-space: pre;" direction="ltr">Make a new node with value 4 and next null</text></g><g transform="translate(399.2723567212866 599.8982969011579) rotate(0 7.5 12.5)"><text x="7.5" y="18" font-family="Virgil, Segoe UI Emoji" font-size="20px" fill="#000000" text-anchor="middle" style="white-space: pre;" direction="ltr">2</text></g><g transform="translate(134.200928149858 584.2554397583009) rotate(0 51.42857142857141 29.285714285714278)"><path d="M-0.26072342693805695 -1.3805417269468307 C38.376133239694994 -1.0339688484157834, 76.79587259675773 -0.9417928878750119, 104.06713733715667 -0.3564552515745163 M-0.4508511647582054 0.9634259566664696 C38.355474943561205 0.6222273530704636, 77.68649740197827 0.0901812734348435, 102.50508877528561 -0.0025853291153907776 M104.100603676268 -0.9028000086545944 C103.7550028229398 13.405893652566839, 104.707374897067 26.264956576483584, 102.57734880489959 56.63273273834159 M102.89262196315183 0.6119261607527733 C102.5630464497421 20.966783029692508, 103.24841665657499 41.597114446972085, 101.94751188052548 57.77455627598931 M104.75644502682341 59.78646122344901 C69.01618377012863 58.548846207771966, 37.30001614136353 57.30041547885961, 0.8073674887418747 59.00747763046195 M102.67922231448544 58.168913957263726 C69.52154113032985 57.64647549497228, 35.182013327521915 58.81720346318822, -0.36005302518606186 58.45184981503655 M-0.00462515652179718 59.31049810775687 C-0.58707575446793 40.853680364787564, -1.3668508971376077 23.846645947013577, 0.5569283217191696 -0.5129822939634323 M-0.4970559701323509 59.18269431271722 C-0.006043551542929015 35.057519548705635, -1.1706641894366059 12.719049801783896, 0.1172364130616188 -0.8811051025986671" stroke="#000000" stroke-width="1" fill="none"></path></g><g><g transform="translate(297.62949957842943 613.6840111868722) rotate(0 20.714285714285708 -0.7142857142857224)"><path d="M-0.8283250361680985 -0.07782087028026585 C5.952710500643365 -0.31142344403834843, 33.967180006135074 -1.4539238536641848, 40.937342129860596 -1.5580494987113298 M0.9376655905041842 -1.1642807725165039 C7.495723495329506 -1.191156949296685, 33.221330640403366 0.16134291138454274, 39.731401284410204 -0.08860023431348507" stroke="#000000" stroke-width="1" fill="none"></path></g><g transform="translate(297.62949957842943 613.6840111868722) rotate(0 20.714285714285708 -0.7142857142857224)"><path d="M20.03657475518582 5.933569984412852 C26.23838221782662 3.9653705739226153, 33.94315838131051 2.1400271308068994, 41.27995253093406 -1.9713792812066049 M19.700630452805736 7.5661497953302295 C26.475437057543708 4.665887426746994, 32.313189596321365 2.2017630687166108, 38.93497955538198 -0.16188215575980847" stroke="#000000" stroke-width="1" fill="none"></path></g><g transform="translate(297.62949957842943 613.6840111868722) rotate(0 20.714285714285708 -0.7142857142857224)"><path d="M20.21670791053555 -8.243113225561066 C26.342224739194478 -5.662869830775685, 33.9891912358421 -2.9385270619289487, 41.27995253093406 -1.9713792812066049 M19.880763608155466 -6.6105334146436885 C26.534258397245615 -4.991924324656008, 32.31461486175169 -2.9389126736906777, 38.93497955538198 -0.16188215575980847" stroke="#000000" stroke-width="1" fill="none"></path></g></g><g transform="translate(244.77235672128654 585.1125826154437) rotate(0 15 28.571428571428555)"><path d="M-0.21579678356647491 -0.7265395373106003 C8.139181889593601 -0.23364792689681055, 15.406926065683367 -1.759971722215414, 30.372627422213554 -0.9017023295164108 M0.04425600916147232 0.2818182334303856 C11.538223788142204 -0.24674462303519246, 22.984134010970592 -0.3174412153661251, 30.60836986452341 0.6217304095625877 M31.893154308199883 0.45161111652851105 C29.989000871777534 12.624732713614184, 31.482235983014107 27.14021576089517, 28.8362385481596 57.21381535487512 M30.97307590395212 -0.6530403271317482 C29.25477227887937 19.842705766005167, 30.341830107782567 41.85074281373193, 29.061153687536716 58.09250822769741 M29.807082816958427 56.837514543107545 C19.984818510711193 57.72036942126492, 8.879030644893646 57.49601706149319, -1.1886299401521683 56.78701605754236 M29.430193223059177 57.99992743240932 C21.847490817308426 56.92918108286599, 14.228937886655329 57.41184447588662, 0.4584947004914284 57.14054456459621 M-1.1541870385408401 55.38031973796228 C0.6639031491109302 37.375390459384214, 1.9386629185506274 20.04973669350146, 0.41472117602825165 -0.9941119402647018 M-0.7560228928923607 57.161794335714376 C-0.11624801265341878 35.625947804323246, -0.05789196597678303 15.894872696271953, 0.35532454401254654 -0.12893597036600113" stroke="#000000" stroke-width="1" fill="none"></path></g><g transform="translate(182.7723567212866 601.8982969011579) rotate(0 2 12.5)"><text x="2" y="18" font-family="Virgil, Segoe UI Emoji" font-size="20px" fill="#000000" text-anchor="middle" style="white-space: pre;" direction="ltr">1</text></g><g transform="translate(356.20092814985804 582.2554397583009) rotate(0 51.428571428571416 29.285714285714278)"><path d="M1.5485512465238571 -1.8827790468931198 C27.493281230330457 -0.7183824858495168, 56.16815952956674 -0.7479716620274953, 104.48487148327483 0.08851201832294464 M-0.796421729028225 -0.0732819214463234 C34.36421455123594 0.6243896052241324, 67.06028936909776 0.47305031269788733, 103.10675331843747 0.9465771540999413 M104.07058391613616 -1.9866413325071335 C101.61144171857404 18.964962196137222, 103.99905549191999 38.36341936247689, 102.540554142424 60.5175803793328 M103.03456970942868 0.5715866908431053 C101.38551268694653 14.696129168782912, 102.93187532542004 26.913529007562563, 103.32868692172421 58.47496997990777 M103.38127145809783 58.78312527069022 C72.38170342998842 58.439841287902404, 43.4784946548087 59.2298016722713, -0.6273153573274612 57.43181501754691 M102.67099305880917 58.93451320805718 C63.64291457938294 58.44612070087874, 23.88123166880436 58.261227331204054, -0.6183127984404564 57.994335052158135 M1.8316880911588669 59.98727690109183 C0.251620738953352 45.167604745498714, 1.0594310455024243 34.56920029010091, -1.1565020829439163 -1.5120457857847214 M0.17559245973825455 58.5950525967138 C0.2866575020764556 40.760146185755715, 0.06310742082340381 24.091827604387483, 0.2693465128540993 -0.3744780197739601" stroke="#000000" stroke-width="1" fill="none"></path></g><g transform="translate(579.6294995784294 599.8268683297293) rotate(0 17 12.5)"><text x="0" y="18" font-family="Virgil, Segoe UI Emoji" font-size="20px" fill="#000000" text-anchor="start" style="white-space: pre;" direction="ltr">Null</text></g><g transform="translate(144.11266904523575 733.2057088216146) rotate(0 45.83333333333334 29.166666666666686)"><path d="M-1.3835857659578323 0.9314914494752884 C28.63990560049813 -0.3742107146730024, 56.572744501133776 -0.3867253058900434, 90.9152825723092 1.9383812695741653 M0.6389956846833229 0.9606953486800194 C25.402217699835706 0.010460761065284374, 51.224559893210746 -0.1829851598789295, 91.70909352848929 -0.012952961027622223 M91.04799207548302 -0.04119102656841278 C91.49787073644501 21.79009729002914, 92.15039234670502 45.52185252557201, 90.07831081251305 58.80789748330915 M92.53821607182425 0.5613363608717918 C91.62372078436118 15.901137872288636, 91.12002696531516 32.681208853920324, 92.17435141156119 58.783654135962365 M92.04805644849938 56.39949217935407 C68.89523897692563 56.89549667574469, 47.36172997703156 59.01014883257452, 0.7194935530424118 57.00663224359357 M91.5956980759899 58.60849277426803 C69.83442799374463 57.9849215925982, 46.94136012097201 58.61192550075555, -0.5124318227171898 58.736818951865075 M0.01455657184123993 56.993612681825994 C-1.268280668184161 37.0496478242179, 2.2311952877789736 14.93681394805511, -0.13301165401935577 -0.6055511683225632 M0.9757483378052711 58.68134753157699 C0.7873353715986012 37.28016952797773, 0.4175374265760182 15.064866463343314, -0.3770537003874779 -0.7591714039444923" stroke="#000000" stroke-width="1" fill="none"></path></g><g transform="translate(183.94600237856906 749.8723754882812) rotate(0 6 12.5)"><text x="6" y="18" font-family="Virgil, Segoe UI Emoji" font-size="20px" fill="#000000" text-anchor="middle" style="white-space: pre;" direction="ltr">4</text></g><g transform="translate(244.11266904523575 728.2057088216146) rotate(0 18.333333333333343 32.5)"><path d="M-0.6595514565706253 -1.2083601206541061 C11.956350229680545 2.1576196166376276, 25.017732262611403 1.0861755820612113, 36.59393724302453 1.2779913693666458 M-0.12952324002981186 -0.2163194790482521 C14.56497647364935 -0.004565989722808195, 29.79271745930117 0.28823992038766544, 37.44837184498709 -0.3093372955918312 M36.987144793073355 1.7996397763490677 C34.97039668026072 19.840693313628435, 36.244836015130105 37.667955957353115, 37.72696670393151 66.74309881031513 M36.430448489884554 -0.48761145025491714 C37.34821057903272 23.59900714829564, 36.27598953830701 45.56583662331104, 36.68912716458243 65.19069489091635 M37.01189788679284 65.65622670948505 C29.931535668671145 63.405920911580324, 20.56911473472914 64.16672175005078, -0.5710290223360062 64.85806281864643 M36.04858418057364 65.54031380265951 C24.145316893855743 65.37169924651583, 13.3031229103605 64.30429092322787, -0.21288128942251205 65.00727828592062 M1.843907043337822 64.23688896000385 C0.40504824258387095 49.248540949076414, 1.9776137981563808 35.41456610709429, 1.7593576163053513 1.9514966756105423 M0.6235654726624489 65.12893088907003 C-1.0227399218827484 42.47873630747199, -0.608526026085019 21.235608071088784, 0.9509239569306374 0.050324998795986176" stroke="#000000" stroke-width="1" fill="none"></path></g><g transform="translate(16.95035621420351 530.3746032714844) rotate(0 131 12.5)"><text x="0" y="17" font-family="Virgil, Segoe UI Emoji" font-size="20px" fill="#000000" text-anchor="start" style="white-space: pre;" direction="ltr">       append the value 2</text></g><g transform="translate(832.4519126106879 99.3625068664551) rotate(0 185.5 87.5)"><text x="0" y="18" font-family="Virgil, Segoe UI Emoji" font-size="20px" fill="#000000" text-anchor="start" style="white-space: pre;" direction="ltr">Find the end by checking for null</text><text x="0" y="43" font-family="Virgil, Segoe UI Emoji" font-size="20px" fill="#000000" text-anchor="start" style="white-space: pre;" direction="ltr">Made a new node</text><text x="0" y="68" font-family="Virgil, Segoe UI Emoji" font-size="20px" fill="#000000" text-anchor="start" style="white-space: pre;" direction="ltr">Place value 2 in new node</text><text x="0" y="93" font-family="Virgil, Segoe UI Emoji" font-size="20px" fill="#000000" text-anchor="start" style="white-space: pre;" direction="ltr">Set the next to null</text><text x="0" y="118" font-family="Virgil, Segoe UI Emoji" font-size="20px" fill="#000000" text-anchor="start" style="white-space: pre;" direction="ltr">Set next of the last node in the list</text><text x="0" y="143" font-family="Virgil, Segoe UI Emoji" font-size="20px" fill="#000000" text-anchor="start" style="white-space: pre;" direction="ltr"> to point to the new ode</text><text x="0" y="168" font-family="Virgil, Segoe UI Emoji" font-size="20px" fill="#000000" text-anchor="start" style="white-space: pre;" direction="ltr"></text></g><g transform="translate(130.4542316776901 458.0000000000001) rotate(0 51.42857142857141 29.285714285714278)"><path d="M0.6523930784314871 -0.3337110336869955 C36.15945823517227 -0.678070764190384, 73.25976031513083 -1.144102613574692, 102.84397086208416 0.1746265236288309 M-0.0593664376065135 0.3226902959868312 C38.62459117214061 -1.384519861931247, 75.17759499313041 -1.5854672360367006, 102.0214152223031 0.5913386521860957 M101.53003510540081 -0.8182843383401632 C103.16918570844985 20.045238000340756, 102.38832176773406 39.50927951931953, 103.5534711152847 59.03277733788957 M101.93634437383814 0.1364123998209834 C104.01521319772246 23.18852512112685, 104.16862610603812 45.32720381380723, 103.55292465151949 58.654424927729565 M103.2004881173904 60.19048598275651 C70.25854786405603 56.20479678091192, 33.61675371362692 57.4463416832366, 1.6113853808492422 57.75514754519929 M102.05610300959749 57.576947711008984 C64.73596040944433 59.41216341951594, 28.350354743190096 59.29874236682162, -0.38328445237129927 59.04762815644165 M-1.8953909520059824 58.154784290652174 C-0.33252087840810407 38.01892922406216, -0.22800502786412824 17.84113728308251, 0.03809068165719509 -1.3247057255357504 M-0.05089009087532759 58.0558519284906 C0.45434687064428414 43.812119913154405, -0.8499752826855651 27.854111584036467, 0.15928187686949968 0.6954783676192164" stroke="#000000" stroke-width="1" fill="none"></path></g><g transform="translate(351.88280310626146 477.57142857142856) rotate(0 17 12.5)"><text x="0" y="18" font-family="Virgil, Segoe UI Emoji" font-size="20px" fill="#000000" text-anchor="start" style="white-space: pre;" direction="ltr">Null</text></g><g><g transform="translate(291.88280310626146 489.42857142857144) rotate(0 20.714285714285708 -0.7142857142857224)"><path d="M0.03644188307225704 -0.1138622190803289 C6.934045353443138 -0.2967439461854269, 34.26924329206701 -1.35704863275447, 41.185394202013086 -1.4364746256066383 M-1.4035648576542736 -1.2192438294366004 C5.332259145849161 -1.16877071507098, 33.07197715144959 0.3090776232718577, 40.109680694442766 0.09680144717116956" stroke="#000000" stroke-width="1" fill="none"></path></g><g transform="translate(291.88280310626146 489.42857142857144) rotate(0 20.714285714285708 -0.7142857142857224)"><path d="M20.327128591097953 6.452773738696502 C26.073756073562816 5.111180838154281, 33.03476830504849 1.8470654008675305, 41.61973603340663 -0.021931428041857437 M19.611866765737595 6.049201768867002 C26.15180893822629 5.321956354719337, 34.00569082338639 1.998051046789734, 40.075029173780756 -0.5667524286998331" stroke="#000000" stroke-width="1" fill="none"></path></g><g transform="translate(291.88280310626146 489.42857142857144) rotate(0 20.714285714285708 -0.7142857142857224)"><path d="M20.564909670023248 -7.723059744669396 C26.2041018403581 -5.048361992538327, 33.097747256648155 -4.296258987070746, 41.61973603340663 -0.021931428041857437 M19.84964784466289 -8.126631714498895 C26.393267187333294 -4.14513221204762, 34.16814178414195 -2.7588470847067166, 40.075029173780756 -0.5667524286998331" stroke="#000000" stroke-width="1" fill="none"></path></g></g><g transform="translate(239.02566024911863 460.8571428571429) rotate(0 14.999999999999996 28.571428571428555)"><path d="M-0.013171995058655739 0.1746265236288309 C10.488026794977488 -1.1131297874264419, 19.692264754325155 -0.05793856857344509, 30.645380591973662 1.1665551606565714 M-0.8357276348397136 0.5913386521860957 C7.684319755062462 -0.2433466042391956, 14.317828639410438 -0.42089367164298896, 29.59085783082992 0.2983519909903407 M30.696328258141875 0.46134876646101475 C31.71368870857571 17.057511657210323, 28.47590223673199 29.575055544663734, 30.272824799641967 58.66876066023747 M30.69578179437667 0.08299635630100965 C30.84075195861182 19.140420606758966, 29.67323343229613 39.53560101413831, 30.80952870566398 57.90300824879 M31.611385380849242 56.32657611662785 C24.536479427479208 56.99985097259546, 18.383240573108196 55.50321952909494, -1.9889617208391428 55.97163051659504 M29.6167155476287 57.6190567278702 C22.05088261142373 57.91434588305915, 12.689392517320808 56.11906390659774, -0.20832214038819075 57.224818464501595 M0.03809068165719509 55.81815141732136 C-0.946774048730731 38.46857765928973, -2.026109440252185 18.6987100932747, -1.0311532858759165 1.1997374836355448 M0.15928187686949968 57.83833551047633 C-0.16117184622479364 39.324673765072845, -0.009875141217240535 19.9162852664345, 0.383771357126534 -0.9728201450780034" stroke="#000000" stroke-width="1" fill="none"></path></g><g transform="translate(177.02566024911866 477.64285714285717) rotate(0 2 12.5)"><text x="2" y="18" font-family="Virgil, Segoe UI Emoji" font-size="20px" fill="#000000" text-anchor="middle" style="white-space: pre;" direction="ltr">1</text></g><g transform="translate(90.97034141317812 414.8472213745117) rotate(0 90 12.5)"><text x="0" y="17" font-family="Virgil, Segoe UI Emoji" font-size="20px" fill="#000000" text-anchor="start" style="white-space: pre;" direction="ltr">append the value 1</text></g><g transform="translate(157.67556831137148 343.3162078857422) rotate(0 22.5 12.5)"><text x="22.5" y="17" font-family="Virgil, Segoe UI Emoji" font-size="20px" fill="#000000" text-anchor="middle" style="white-space: pre;" direction="ltr">head</text></g><g transform="translate(328.419472425141 338.4165954589844) rotate(0 17.5 12.5)"><text x="0" y="17" font-family="Virgil, Segoe UI Emoji" font-size="20px" fill="#000000" text-anchor="start" style="white-space: pre;" direction="ltr">Null</text></g><g transform="translate(241.6040770699164 324.7043762207031) rotate(0 10.64967155456543 30.909786224365234)"><path d="M1.3807097021490335 0.23803243599832058 C5.943700174005076 1.5809945108682995, 15.36148228709647 0.72547122261833, 19.93621408380568 0.39881852827966213 M0.6405463991686702 -0.18476572912186384 C4.891488406053922 -0.4580432209156099, 10.845024216344935 -0.853314432778174, 20.571701812557876 0.026973125524818897 M19.57869445718825 -1.4310779217630625 C22.34043226370201 19.919581241947903, 20.97661904224739 37.95948562965789, 21.565562898293138 60.51501510106027 M22.038703965954483 -0.3120802668854594 C20.568228285725823 17.042235388828228, 21.521371792968026 35.888979824143966, 21.808687466196716 62.38103237468749 M21.466572934761643 62.17048547230661 C13.337773559457272 60.89390659170853, 8.538497270700754 62.896053133780825, -1.3768522795289755 63.78318730555475 M21.626527327112854 61.32895865757018 C12.731098602721291 61.41186400220251, 5.99132764657924 61.26704864666319, 0.6098201153799891 62.44636195618659 M0.3896210137754679 61.21552840434015 C-1.2247002655859798 43.04733285736287, -0.45222579783161587 26.12294796407211, -0.2810537274926901 1.255520200356841 M-0.3960628630593419 61.46910971123725 C0.2525939005770024 39.41943388474371, -0.007029239519662056 16.84759943550847, -0.8249261798337102 -0.011626753024756908" stroke="#000000" stroke-width="1" fill="none"></path></g><g><g transform="translate(275.40422126547304 356.1983642578125) rotate(0 22.152378020174808 -1.2189831554685782)"><path d="M0.7521474089473486 -0.2924227025359869 C7.942999101306001 -0.45890197617312267, 35.31489956838389 -0.12554013195137181, 42.50145934484899 -0.26709150336682796 M-0.3121139306947589 -1.4915485667064787 C7.287611933636168 -2.082872566667696, 37.36009458431353 -2.3669261923308174, 44.61686997104436 -2.120754426605999" stroke="#000000" stroke-width="1" fill="none"></path></g><g transform="translate(275.40422126547304 356.1983642578125) rotate(0 22.152378020174808 -1.2189831554685782)"><path d="M23.56882252114191 3.2980038572317376 C29.930666858670783 3.65100566999811, 33.53831270237039 -0.35021933942131733, 42.88404824387282 -3.158346724025905 M24.663989404573286 6.098633973135652 C28.641544258376744 3.064402855857622, 32.726129726438074 2.6714075764918226, 44.5199702502042 -1.5671791017800567" stroke="#000000" stroke-width="1" fill="none"></path></g><g transform="translate(275.40422126547304 356.1983642578125) rotate(0 22.152378020174808 -1.2189831554685782)"><path d="M23.678691434964662 -11.628955452350631 C30.10449580010606 -7.59782298655613, 33.68507407093378 -7.9216059897712245, 42.88404824387282 -3.158346724025905 M24.773858318396037 -8.828325336446717 C28.706363344954504 -8.591212294460856, 32.76687537354129 -5.713553127766245, 44.5199702502042 -1.5671791017800567" stroke="#000000" stroke-width="1" fill="none"></path></g></g><g transform="translate(124.5039908577582 325.2603302001953) rotate(0 55.67157745361328 30.555877685546875)"><path d="M0.5530356708914042 -0.41513040103018284 C30.055952528914073 -0.9719795375844789, 59.17232802035959 0.626320263765161, 112.41411256231368 0.19696871004998684 M-0.2538088383153081 0.39356568176299334 C32.52499930345324 -0.9316856828122475, 65.1632005650338 -1.1440478828339913, 112.13864837866277 -0.734640303067863 M111.80784415639937 -0.9852531794458628 C112.72992771210205 21.282408738009536, 113.16979872526657 37.71697701227646, 111.80342155136168 62.64293441735208 M112.24052296858281 0.8536897273734212 C111.7898972613727 16.582367435169065, 111.49436637591471 33.95038554366051, 111.80940516572446 61.477983322925866 M110.54650312103331 61.93338403664529 C76.6679837042193 60.15764548172431, 40.40109186614063 60.235441285271214, -0.6358579453080893 59.61287740431726 M111.77139480691403 60.67995318491012 C80.30043940537541 59.760980940510436, 48.942722338492544 59.693239635874434, 0.6978238103911281 61.76490676123649 M0.0947571936994791 59.136252438649535 C0.7753542843784572 41.57080482856961, -0.9929694351230381 22.8283915049887, -0.350655859336257 1.4910139795392752 M-0.4202570440247655 60.88398325163871 C-0.20981673811320722 40.03352969020082, -0.09470118497256697 20.194547877114985, 0.19501759391278028 -0.3057242361828685" stroke="#000000" stroke-width="1" fill="none"></path></g><g transform="translate(94.48363944784609 276.44176483154297) rotate(0 77 24.5)"><text x="0" y="17.5" font-family="Virgil, Segoe UI Emoji" font-size="20px" fill="#000000" text-anchor="start" style="white-space: pre;" direction="ltr">New Linked List</text><text x="0" y="42" font-family="Virgil, Segoe UI Emoji" font-size="20px" fill="#000000" text-anchor="start" style="white-space: pre;" direction="ltr"></text></g><g transform="translate(198.5969741036078 10) rotate(0 120.5 37)"><text x="0" y="16.666666666666668" font-family="Virgil, Segoe UI Emoji" font-size="20px" fill="#000000" text-anchor="start" style="white-space: pre;" direction="ltr">Add  1 to new linked list</text><text x="0" y="41.333333333333336" font-family="Virgil, Segoe UI Emoji" font-size="20px" fill="#000000" text-anchor="start" style="white-space: pre;" direction="ltr">Add 2 to linked list</text><text x="0" y="66" font-family="Virgil, Segoe UI Emoji" font-size="20px" fill="#000000" text-anchor="start" style="white-space: pre;" direction="ltr">add 4 to linked list</text></g><g transform="translate(127.5342614831913 995.9221064249678) rotate(0 51.42857142857141 29.285714285714278)"><path d="M-0.42882759869098663 0.06298358738422394 C35.507231033274095 -0.554931427325521, 70.33750048066887 -2.2473624003784995, 103.40617427868499 -1.7042507380247116 M0.9216988459229469 -0.6750084534287453 C21.817586416644705 -0.22120768917458378, 43.10438127496412 0.019420791736671106, 103.03764244807614 0.8957539424300194 M101.60712108654631 0.19911153614521027 C102.75014285775164 23.021923800664286, 102.49200467797259 45.502527202878674, 102.88983545345916 56.67574535736014 M102.67346665156735 -0.23411933332681656 C103.51243382298517 21.373976894787376, 102.91487556302118 44.53196173374141, 103.16082116855038 59.42719852605035 M103.78328714413298 60.482305873717564 C62.99446915090081 59.7224076854331, 24.966072910598328 59.240151272926994, -1.248493030667305 60.564345229949254 M101.99238511813535 57.85060894169976 C70.90410417637652 57.46058635988404, 39.687687553465345 56.84734826364686, -0.24821468442678452 59.00039660611321 M0.7007447928190231 60.223322738494176 C-1.501732761412859 37.13536455907991, 1.5197005920112132 14.979611579860958, -0.8965762406587601 1.3682871609926224 M0.8161983862519264 59.28373133816888 C0.1277402112526551 38.85017631096498, -0.044418268437896646 19.290240363350925, -0.31087275594472885 -0.138802208006382" stroke="#000000" stroke-width="1" fill="none"></path></g><g transform="translate(392.6056900546199 1011.5649635678247) rotate(0 7.5 12.5)"><text x="7.5" y="18" font-family="Virgil, Segoe UI Emoji" font-size="20px" fill="#000000" text-anchor="middle" style="white-space: pre;" direction="ltr">2</text></g><g><g transform="translate(290.9628329117627 1025.350677853539) rotate(0 20.714285714285708 -0.7142857142857224)"><path d="M0.9628630667924882 -0.036902859807014465 C7.9196335050321744 -0.17107859182925722, 34.08738612972553 -0.1841320181176911, 40.89062568417616 -0.6075991319758713 M0.00922744751907878 -1.1018808065447958 C6.835281077022441 -1.5871310496778213, 32.794644978878836 -2.1722245394070545, 39.66015870474145 -2.299163425041911" stroke="#000000" stroke-width="1" fill="none"></path></g><g transform="translate(290.9628329117627 1025.350677853539) rotate(0 20.714285714285708 -0.7142857142857224)"><path d="M20.279907968578595 4.312781552777764 C26.12456245672024 3.9231904861037528, 27.268269307645475 -0.14178824854820604, 41.2925554772453 -0.8745578915612668 M19.656150136826295 4.898485037491795 C25.193232032618532 3.2775852197483593, 31.027716635670814 1.652335011363276, 39.95852318756148 -1.947213219179389" stroke="#000000" stroke-width="1" fill="none"></path></g><g transform="translate(290.9628329117627 1025.350677853539) rotate(0 20.714285714285708 -0.7142857142857224)"><path d="M19.973251533883907 -9.861729254324995 C25.911505130697865 -7.005451887379521, 27.125487492636893 -7.822101620452312, 41.2925554772453 -0.8745578915612668 M19.349493702131607 -9.276025769610964 C24.905290597126033 -7.25668036471966, 30.81848940899191 -5.243541557685328, 39.95852318756148 -1.947213219179389" stroke="#000000" stroke-width="1" fill="none"></path></g></g><g transform="translate(238.10569005461986 996.7792492821105) rotate(0 15 28.571428571428555)"><path d="M-1.621427372097969 0.07932145893573761 C10.837179221212864 1.6494334377348423, 19.780328661203384 0.8487413562834263, 31.750795051455498 0.6279288083314896 M-0.59395881742239 -0.986075796186924 C6.2625027149915695 -0.7328231476247311, 13.570174269378185 -0.10859633907675742, 29.36792878061533 -0.7098309174180031 M30.290486976504326 -1.9031571596860886 C30.9458693840674 17.376381684626843, 28.828463015811785 31.77806713538509, 31.60477177798748 57.081352376512086 M29.04238823801279 -0.877362884581089 C31.207137575106962 15.293513507715286, 29.957792510943754 28.739132026476504, 29.394694842398167 56.457594544759786 M31.47368733584881 57.50424590068201 C22.529347233474255 57.81034275176266, 15.842010915279385 57.98252054335812, 1.17095248401165 56.190212869218385 M30.727784670889378 58.03670564400295 C23.598598033189774 57.45489421667794, 15.198453448712826 56.52359429182748, -0.8554174527525902 57.28699532257656 M0.6073729246854782 55.64130463557581 C-1.7892197391816547 43.42491224621021, -1.499124886734145 27.198830525789923, -0.5745886117219925 0.03312356770038605 M0.23591212183237076 56.85689011322597 C0.2721074808921132 42.90310453197783, 0.07950985325234267 30.000916545944538, -0.6321639642119408 0.8132835254073143" stroke="#000000" stroke-width="1" fill="none"></path></g><g transform="translate(176.1056900546199 1013.5649635678247) rotate(0 2 12.5)"><text x="2" y="18" font-family="Virgil, Segoe UI Emoji" font-size="20px" fill="#000000" text-anchor="middle" style="white-space: pre;" direction="ltr">1</text></g><g transform="translate(349.53426148319136 993.9221064249678) rotate(0 51.428571428571416 29.285714285714278)"><path d="M-0.6849916726350784 -1.233029767870903 C21.292016917041366 2.4167364754847114, 41.1637246033975 0.11518990184579547, 104.3223277096237 1.938014104962349 M0.7535887137055397 0.48079928010702133 C41.18190475340399 -0.5193411101187977, 80.7001026900751 0.5066801320229259, 103.58891555560483 -0.6000725403428078 M104.15010557217254 0.6032171994447708 C104.70372384009613 16.032224334776398, 103.81568758902802 34.61072182655334, 104.02750072521819 56.91607843765189 M102.15839454425229 0.7201884612441063 C103.11215055787133 12.527886305536539, 102.83112824761437 26.752904401293815, 102.97816941035641 58.644178744937676 M102.77825222057952 58.44151102432181 C75.59279317728108 57.584768108384935, 47.324494168162325 59.232653907792894, 1.5916411131620407 56.67960201629569 M102.65940377009763 59.50795781293084 C73.05260819516009 60.370167837185505, 45.1885265484452 58.78988109592879, 0.3251989260315895 58.2487870422857 M0.5036474913358688 58.13948284515311 C1.7141101225146225 42.463280670344815, 1.3820125921496322 27.554732914481832, 0.33010880649089813 -1.3178018778562546 M-0.28220196813344955 58.40022480168511 C0.09308821995343469 39.73228683854852, 0.3570945962199142 20.88352459562676, -0.21796604245901108 0.5611644610762596" stroke="#000000" stroke-width="1" fill="none"></path></g><g transform="translate(460.1056900546199 994.7792492821105) rotate(0 15 28.571428571428555)"><path d="M-0.5801590234041214 -0.8562187403440475 C8.615640200674534 1.7212149299681188, 16.179771333932877 -1.7349642120301723, 30.65549723803997 1.5071774274110794 M-0.33960672467947006 0.8437929973006248 C11.174170538783073 -0.5454040668904782, 20.783200792968273 -0.032154431194066996, 30.971569813787937 0.6464813575148582 M31.0093981474638 0.6579762250185013 C31.712481981941632 17.210984721779813, 29.135816580482892 37.86172576248644, 31.664655849337578 55.74536051707605 M29.936190403997898 -0.1530086174607277 C30.245148104216373 21.33096995204686, 29.847747009779727 41.64096017926929, 29.73495391756296 57.10341182457546 M30.496217891573906 58.07670130687097 C22.786517433822155 55.14392434241513, 12.030109822750092 56.71725569846372, 1.9182450026273727 56.747378968766725 M30.346486128866673 56.374783666006124 C18.515611201524734 57.06387959303597, 6.151571296155453 57.102657182833944, -0.39621611684560776 57.394680888525045 M1.2157494276762009 58.58348050074915 C-0.11213318152087048 39.91632876864499, -0.05668798727648572 24.402573642986145, -1.9514110833406448 -0.5644039362668991 M0.08683709055185318 56.85605517136196 C-0.11672645062208181 41.53947171675305, 0.07094020396471018 24.232005388608982, 0.25017885118722916 0.38332565873861313" stroke="#000000" stroke-width="1" fill="none"></path></g><g transform="translate(240.6478019267705 974.8611882527671) rotate(0 24 12.5)"><text x="0" y="18" font-family="Virgil, Segoe UI Emoji" font-size="20px" fill="#000000" text-anchor="start" style="white-space: pre;" direction="ltr">Next</text></g><g transform="translate(458.9811352601039 966.5278549194337) rotate(0 24 12.5)"><text x="0" y="18" font-family="Virgil, Segoe UI Emoji" font-size="20px" fill="#000000" text-anchor="start" style="white-space: pre;" direction="ltr">Next</text></g><g><g transform="translate(514.5016664410691 1018.0833333333334) rotate(0 21.666666666666686 0)"><path d="M0.8306114226579664 0.04398312270641336 C7.728856460584542 0.14131998717784888, 35.472642371720774 -0.7245191127061843, 42.44264949460828 -0.5995790988206863 M-0.19245630978606632 -0.9785296832118183 C6.98767941757313 -0.6257232166919857, 37.733827414588205 0.6486851413454859, 44.6869950156504 0.6230671255197375" stroke="#000000" stroke-width="1" fill="none"></path></g><g transform="translate(514.5016664410691 1018.0833333333334) rotate(0 21.666666666666686 0)"><path d="M24.231821736053234 6.068674549108339 C31.187795949411502 3.586013514881518, 41.47002399633738 2.346199504156787, 42.81762033811153 0.038007646640762616 M24.752067057148224 6.830569125359846 C29.22150893674227 6.157770634368928, 34.05960807446344 4.986719804643653, 45.35724360606016 0.19277479483745985" stroke="#000000" stroke-width="1" fill="none"></path></g><g transform="translate(514.5016664410691 1018.0833333333334) rotate(0 21.666666666666686 0)"><path d="M24.58000347982209 -8.748107906023758 C31.25482212102203 -5.482930165421649, 41.402037495342064 -0.9773154324302444, 42.81762033811153 0.038007646640762616 M25.10024880091708 -7.9862133297722515 C29.63100340820743 -5.25661461798029, 34.38912702676451 -3.0243282814205132, 45.35724360606016 0.19277479483745985" stroke="#000000" stroke-width="1" fill="none"></path></g></g><g transform="translate(569.1126690452359 988.2057088216146) rotate(0 45.83333333333334 29.166666666666686)"><path d="M1.6239147931337357 -0.009020641446113586 C24.69666897381346 -1.1877252763758102, 46.488249448438495 1.900694161032637, 90.98547481993836 -1.8116334229707718 M-0.2830421105027199 -0.7257160767912865 C22.239856189737722 0.96037060332795, 41.68446927269301 0.08504134727021073, 91.77141881237429 0.49082545191049576 M92.14591717223328 1.9011542052030563 C90.78921403177084 20.462825662146027, 93.31969870813192 42.695075122018686, 89.81305479506653 58.63467932244146 M91.90167737255496 0.2017839327454567 C91.7771825299909 11.514343476543832, 91.85593814713262 25.587439214189864, 91.97900867710513 57.394519207378266 M91.63450788954896 57.997003083427785 C60.55535161371033 57.63072818579777, 26.000685694317013 55.647156656409344, 1.5803676396608353 60.2596674015125 M91.47114467869204 58.29145180930698 C73.3411804623902 57.713950129225886, 53.9410364975532 58.002301903441584, 0.6277428492903709 58.10841142882907 M-0.7379497736692429 56.75980854531133 C0.8137527834624054 34.47538348411523, 1.5436698328703644 14.165247363348811, -1.253765031695366 -0.491844967007637 M-0.836603082716465 58.66592752685153 C0.7224160972982645 46.679086465388565, -0.9301362689584494 34.21498862902325, -0.3125707283616066 -0.10162874311208725" stroke="#000000" stroke-width="1" fill="none"></path></g><g transform="translate(608.9460023785691 1004.8723754882812) rotate(0 6 12.5)"><text x="6" y="18" font-family="Virgil, Segoe UI Emoji" font-size="20px" fill="#000000" text-anchor="middle" style="white-space: pre;" direction="ltr">4</text></g><g transform="translate(669.1126690452359 983.2057088216146) rotate(0 18.333333333333343 32.5)"><path d="M1.0025068074464798 0.006102249026298523 C6.726833162208402 -1.915808734546105, 17.910708467165637 1.9879946139951548, 34.73847174147767 0.10276620090007782 M0.3369537219405174 -0.9068882092833519 C11.749269704024004 -0.6031798762579759, 24.927782890697333 -0.20956534569462137, 37.46141433964175 -0.7350778207182884 M37.05162405471009 -1.721921756863594 C37.54170742767555 13.484324913471937, 35.17306795852882 26.268864430487156, 34.818264241019904 64.76651160418987 M37.32098198185366 0.4545793905854225 C35.12463761183125 23.764656823128462, 35.81030393453938 47.22906927764416, 36.94560790310305 65.77242401987314 M35.413521046439826 66.4077660292387 C25.11449862768254 64.90014987314741, 16.111939221620567 65.1860638173918, 0.4496060162782669 63.932011768221855 M36.76275611172122 65.3336022272706 C26.556328877806678 64.08446080212792, 17.658579317231982 64.18814308171471, 0.6861313208937645 65.24499086290598 M-0.09881393611431122 63.15248982608318 C-1.6827605340629814 45.41572009399533, 0.39705580733716495 25.029704146087163, 1.2319436818361282 -0.8465340882539749 M0.45500072091817856 64.33979944139719 C-0.3828408669680357 41.85995677486062, 1.0485682535916567 18.8122811615467, 0.4574800357222557 -0.9811956509947777" stroke="#000000" stroke-width="1" fill="none"></path></g><g transform="translate(789.5016664410693 1000.7500000000001) rotate(0 17 12.5)"><text x="0" y="18" font-family="Virgil, Segoe UI Emoji" font-size="20px" fill="#000000" text-anchor="start" style="white-space: pre;" direction="ltr">Null</text></g><g><g transform="translate(727.8349997744026 1013.0833333333335) rotate(0 21.666666666666686 0)"><path d="M-0.6550725907087326 -1.0090261012315749 C6.4538474960459675 -1.0164072543382643, 34.90782017476032 0.34321140944957734, 42.23440078397596 0.6269099682569503 M1.2018755698297174 1.0756312502827496 C8.703290746651803 0.6587427399959416, 37.48247356422352 -0.7730258123669773, 44.36941573193611 -1.1665370471868663" stroke="#000000" stroke-width="1" fill="none"></path></g><g transform="translate(727.8349997744026 1013.0833333333335) rotate(0 21.666666666666686 0)"><path d="M22.747700126986835 5.477793769619968 C30.712416157647965 5.123264202396429, 36.10840577533624 1.2245043483537659, 44.45404057374538 -0.2407980717811733 M25.041696230094765 6.9636868924718165 C29.366317827104723 5.328121745427097, 32.60399251695953 2.8783887906343697, 44.48196845671476 -2.1339592568669468" stroke="#000000" stroke-width="1" fill="none"></path></g><g transform="translate(727.8349997744026 1013.0833333333335) rotate(0 21.666666666666686 0)"><path d="M21.964581301648437 -9.322375072484672 C30.219663160700442 -5.7494992285982205, 35.82323671300983 -5.7251286688454535, 44.45404057374538 -0.2407980717811733 M24.258577404756366 -7.836481949632823 C28.732281026848348 -6.259946669522106, 32.14013064072663 -5.493542396159891, 44.48196845671476 -2.1339592568669468" stroke="#000000" stroke-width="1" fill="none"></path></g></g><g transform="translate(10 994.0406188964844) rotate(0 22.5 12.5)"><text x="0" y="17" font-family="Virgil, Segoe UI Emoji" font-size="20px" fill="#000000" text-anchor="start" style="white-space: pre;" direction="ltr">head</text></g><g><g transform="translate(77.22314453125 1007.7656860351562) rotate(0 20.65789794921875 6.989715576171875)"><path d="M-0.2992237720638513 -0.6307012941688299 C6.3130691892157 1.6287689103434482, 33.81494287711879 11.237302797411878, 40.73362507484853 13.611605689302086 M1.7445450182631612 1.6525765810534359 C8.665138354289034 4.079436165305475, 36.69850831308713 12.774462425125142, 43.13993992883712 14.955922572426498" stroke="#000000" stroke-width="1" fill="none"></path></g><g transform="translate(77.22314453125 1007.7656860351562) rotate(0 20.65789794921875 6.989715576171875)"><path d="M20.29547997250365 14.796398694727626 C29.19605662066754 15.334645027187115, 37.66472763920315 13.43475431861389, 42.38055390160531 14.633002065606416 M22.15611977468388 15.740289736639765 C28.164424067015833 15.349821474364413, 34.648497618789044 15.141698035546913, 42.54230668343604 14.601533816680313" stroke="#000000" stroke-width="1" fill="none"></path></g><g transform="translate(77.22314453125 1007.7656860351562) rotate(0 20.65789794921875 6.989715576171875)"><path d="M24.872994520889762 0.598259179246277 C32.002502281693225 6.638545181194344, 38.69362243421841 10.252108318525073, 42.38055390160531 14.633002065606416 M26.733634323069992 1.5421502211584155 C31.35415667512921 5.669878100773149, 36.39534836710165 9.937161071539078, 42.54230668343604 14.601533816680313" stroke="#000000" stroke-width="1" fill="none"></path></g></g></svg>